<svg width="41" height="41" viewBox="0 0 41 41" fill="none" xmlns="http://www.w3.org/2000/svg">
<g id="notifications">
<path id="icon" d="M6.83334 32.4583V29.0417H10.25V17.0833C10.25 14.7201 10.9618 12.6274 12.3854 10.8052C13.809 8.95451 15.6597 7.74444 17.9375 7.175V5.97916C17.9375 5.26736 18.1795 4.66944 18.6635 4.18541C19.176 3.67291 19.7882 3.41666 20.5 3.41666C21.2118 3.41666 21.8097 3.67291 22.2938 4.18541C22.8063 4.66944 23.0625 5.26736 23.0625 5.97916V7.175C25.3403 7.74444 27.191 8.95451 28.6146 10.8052C30.0382 12.6274 30.75 14.7201 30.75 17.0833V29.0417H34.1667V32.4583H6.83334ZM20.5 37.5833C19.5604 37.5833 18.749 37.2559 18.0656 36.601C17.4108 35.9177 17.0833 35.1062 17.0833 34.1667H23.9167C23.9167 35.1062 23.575 35.9177 22.8917 36.601C22.2368 37.2559 21.4396 37.5833 20.5 37.5833ZM13.6667 29.0417H27.3333V17.0833C27.3333 15.2042 26.6642 13.5955 25.326 12.2573C23.9879 10.9191 22.3792 10.25 20.5 10.25C18.6208 10.25 17.0122 10.9191 15.674 12.2573C14.3358 13.5955 13.6667 15.2042 13.6667 17.0833V29.0417Z" fill="#1D1B20"/>
</g>
</svg>
