<svg width="16" height="20" viewBox="0 0 16 20" fill="none" xmlns="http://www.w3.org/2000/svg">
<g id="lock">
<path d="M9 12C9 11.4477 8.55229 11 8 11C7.44772 11 7 11.4477 7 12V14C7 14.5523 7.44772 15 8 15C8.55229 15 9 14.5523 9 14V12Z" fill="black"/>
<path fill-rule="evenodd" clip-rule="evenodd" d="M3 6.12037C1.3161 6.53217 0 7.95979 0 9.76923V15.3077C0 17.973 2.31545 20 5 20H11C13.6846 20 16 17.973 16 15.3077V9.76923C16 7.95979 14.6839 6.53217 13 6.12037V5C13 2.23858 10.7614 0 8 0C5.23858 0 3 2.23858 3 5V6.12037ZM11 5V6H5V5C5 4.64936 5.06015 4.31278 5.17071 4C5.58254 2.83481 6.69378 2 8 2C9.30622 2 10.4175 2.83481 10.8293 4C10.9398 4.31278 11 4.64936 11 5ZM2 9.76923C2 8.86597 2.81856 8 4 8H12C13.1814 8 14 8.86597 14 9.76923V15.3077C14 16.7208 12.7337 18 11 18H5C3.26627 18 2 16.7208 2 15.3077V9.76923Z" fill="black"/>
</g>
</svg>
